<svg xmlns="http://www.w3.org/2000/svg" viewBox="0 0 640 360">
    <defs><linearGradient id="bg" x1="0" x2="1"><stop stop-color="#0f3158"/><stop offset="1" stop-color="#5b6fb5"/></linearGradient></defs>
    <rect width="640" height="360" rx="28" fill="url(#bg)"/>
    <circle cx="560" cy="55" r="90" fill="#fff" opacity=".08"/>
    <g transform="translate(38 34)"><rect width="72" height="30" rx="3" fill="#fff"/><rect x="0" y="0" width="72" height="10" fill="#fff"/><rect x="0" y="10" width="72" height="10" fill="#0039A6"/><rect x="0" y="20" width="72" height="10" fill="#D52B1E"/></g><text x="125" y="62" font-family="Arial" font-size="38" font-weight="700" fill="#fff">Russisch</text>
    <text x="40" y="92" font-family="Arial" font-size="15" fill="#dceaf3">Sprachporträt · eigenes Niveau B2</text>
    <g transform="translate(5 75)">
      <path d="M55 125 C80 90,135 75,180 92 C205 75,245 80,270 105 C290 93,320 88,345 98 C370 85,405 82,445 95 C490 105,535 135,555 165 C535 180,500 184,470 175 C445 192,405 200,370 190 C335 205,300 205,270 190 C245 205,210 205,185 190 C155 202,115 190,88 170 C65 160,52 145,55 125 Z" fill="#fff" opacity=".84"/>
      <circle cx="435" cy="95" r="9" fill="#5b6fb5" opacity=".95"/><circle cx="435" cy="95" r="15" fill="#5b6fb5" opacity=".15"/><circle cx="360" cy="110" r="9" fill="#5b6fb5" opacity=".95"/><circle cx="360" cy="110" r="15" fill="#5b6fb5" opacity=".15"/><circle cx="420" cy="145" r="9" fill="#5b6fb5" opacity=".95"/><circle cx="420" cy="145" r="15" fill="#5b6fb5" opacity=".15"/><circle cx="430" cy="160" r="9" fill="#5b6fb5" opacity=".95"/><circle cx="430" cy="160" r="15" fill="#5b6fb5" opacity=".15"/><circle cx="350" cy="130" r="9" fill="#5b6fb5" opacity=".95"/><circle cx="350" cy="130" r="15" fill="#5b6fb5" opacity=".15"/>
    </g>
    <rect x="38" y="286" width="564" height="44" rx="12" fill="#fff" opacity=".12"/>
    <text x="55" y="306" font-family="Arial" font-size="12" fill="#fff">Osteuropa & Eurasien</text>
    <text x="55" y="321" font-family="Arial" font-size="10.5" fill="#e6f0f5">Russland · Belarus · Kasachstan · Kirgistan · weit verbreitet in Teilen Osteuropas</text>
    </svg>